<svg width="256" height="256" viewBox="0 0 48 48" xmlns="http://www.w3.org/2000/svg">
  <defs>
    <linearGradient id="g" x1="0%" y1="0%" x2="100%" y2="100%">
      <stop offset="0%" stop-color="#8b5cf6"/>
      <stop offset="100%" stop-color="#6366f1"/>
    </linearGradient>
  </defs>
  <circle cx="24" cy="24" r="22" fill="url(#g)"/>
  <circle cx="24" cy="24" r="16" fill="none" stroke="rgba(255,255,255,0.1)" stroke-width="0.6"/>
  <circle cx="24" cy="24" r="10" fill="none" stroke="rgba(255,255,255,0.08)" stroke-width="0.5"/>
  <circle cx="24" cy="24" r="4" fill="rgba(0,0,0,0.4)"/>
  <circle cx="24" cy="24" r="1.5" fill="rgba(255,255,255,0.3)"/>
  <path d="M15 18c2-3 4-4 6-4s4 2 6 4" fill="none" stroke="rgba(255,255,255,0.5)" stroke-width="1.3" stroke-linecap="round"/>
  <path d="M17 28c1.5 2 3.5 3 7 3s5.5-1 7-3" fill="none" stroke="rgba(255,255,255,0.5)" stroke-width="1.3" stroke-linecap="round"/>
  <path d="M19 16c0 0 3-2 5-2s4 1.5 4 3.5-2 3-4 3.5-4 1.5-4 3.5 2 3.5 5 3.5 5-2 5-2" fill="none" stroke="rgba(255,255,255,0.25)" stroke-width="1.5" stroke-linecap="round"/>
</svg>
