<svg width="256" height="256" viewBox="0 0 48 48" xmlns="http://www.w3.org/2000/svg">
  <defs>
    <linearGradient id="g" x1="0%" y1="0%" x2="100%" y2="100%">
      <stop offset="0%" stop-color="#8b5cf6"/>
      <stop offset="100%" stop-color="#6366f1"/>
    </linearGradient>
    <radialGradient id="glow" cx="50%" cy="50%" r="50%">
      <stop offset="60%" stop-color="transparent"/>
      <stop offset="100%" stop-color="rgba(139,92,246,0.12)"/>
    </radialGradient>
  </defs>
  <!-- Dark space background -->
  <rect width="48" height="48" rx="8" fill="#06060e"/>
  <!-- Subtle outer glow -->
  <circle cx="24" cy="24" r="23" fill="url(#glow)"/>
  <!-- Tiny stars -->
  <circle cx="6" cy="8" r="0.4" fill="rgba(200,210,255,0.3)"/>
  <circle cx="40" cy="6" r="0.3" fill="rgba(200,210,255,0.25)"/>
  <circle cx="42" cy="38" r="0.35" fill="rgba(200,210,255,0.2)"/>
  <circle cx="8" cy="40" r="0.3" fill="rgba(200,210,255,0.25)"/>
  <circle cx="38" cy="18" r="0.25" fill="rgba(200,210,255,0.2)"/>
  <circle cx="10" cy="22" r="0.3" fill="rgba(200,210,255,0.15)"/>
  <!-- Main disc -->
  <circle cx="24" cy="24" r="18" fill="url(#g)"/>
  <!-- Inner rings -->
  <circle cx="24" cy="24" r="14" fill="none" stroke="rgba(255,255,255,0.1)" stroke-width="0.5"/>
  <circle cx="24" cy="24" r="10" fill="none" stroke="rgba(255,255,255,0.08)" stroke-width="0.4"/>
  <!-- Vinyl center -->
  <circle cx="24" cy="24" r="3.5" fill="rgba(0,0,0,0.45)"/>
  <circle cx="24" cy="24" r="1.3" fill="rgba(255,255,255,0.35)"/>
  <!-- Sound wave arcs -->
  <path d="M15 18c2-3 4-4 6-4s4 2 6 4" fill="none" stroke="rgba(255,255,255,0.5)" stroke-width="1.3" stroke-linecap="round"/>
  <path d="M17 28c1.5 2 3.5 3 7 3s5.5-1 7-3" fill="none" stroke="rgba(255,255,255,0.5)" stroke-width="1.3" stroke-linecap="round"/>
  <!-- S letter hint -->
  <path d="M19 16c0 0 3-2 5-2s4 1.5 4 3.5-2 3-4 3.5-4 1.5-4 3.5 2 3.5 5 3.5 5-2 5-2" fill="none" stroke="rgba(255,255,255,0.25)" stroke-width="1.5" stroke-linecap="round"/>
</svg>
